<?xml version="1.0" standalone="no"?>
<!DOCTYPE svg PUBLIC "-//W3C//DTD SVG 20010904//EN"
 "http://www.w3.org/TR/2001/REC-SVG-20010904/DTD/svg10.dtd">
<svg version="1.0" xmlns="http://www.w3.org/2000/svg"
 width="1024.000000pt" height="1024.000000pt" viewBox="0 0 1024.000000 1024.000000"
 preserveAspectRatio="xMidYMid meet">

<g transform="translate(0.000000,1024.000000) scale(0.100000,-0.100000)"
fill="#000000" stroke="none">
<path d="M3485 7796 c-32 -14 -434 -422 -446 -453 -4 -10 -8 -547 -8 -1194
l-1 -1176 29 -39 c16 -21 117 -126 224 -233 186 -185 197 -194 244 -202 26 -4
186 -8 356 -8 l307 -1 -2 336 -3 335 -212 2 -213 2 -27 28 -28 27 -3 923 c-2
905 -2 923 18 955 l20 32 272 0 273 -1 170 -167 c94 -92 290 -282 435 -422
146 -140 374 -359 507 -487 132 -128 243 -233 246 -233 3 0 46 45 96 100 l91
100 0 279 0 279 -147 143 c-138 135 -210 204 -553 534 -74 72 -227 221 -340
332 -113 111 -218 206 -233 212 -45 17 -1033 14 -1072 -3z"/>
<path d="M6062 7474 l3 -336 213 2 213 1 29 -30 30 -29 0 -922 c0 -681 -3
-927 -12 -943 -24 -45 -31 -46 -297 -47 l-254 0 -136 133 c-75 73 -197 191
-271 263 -74 71 -200 193 -280 270 -80 78 -266 257 -414 398 l-270 258 -45
-49 c-26 -26 -70 -74 -99 -105 l-53 -57 1 -270 1 -270 53 -53 c53 -54 99 -98
496 -478 124 -118 288 -276 365 -350 77 -74 187 -181 245 -236 58 -56 115
-107 127 -113 15 -8 174 -11 534 -11 499 0 512 0 545 21 18 11 121 111 229
221 148 153 197 210 205 237 5 22 8 499 7 1196 -2 1021 -4 1163 -17 1182 -25
34 -401 416 -429 435 -24 16 -60 18 -374 18 l-347 0 2 -336z"/>
<path d="M3155 3358 c-3 -7 -4 -215 -3 -463 l3 -450 80 0 80 0 5 308 5 309 21
-24 c12 -13 122 -149 244 -303 122 -154 229 -284 236 -288 8 -4 42 -7 76 -5
l63 3 3 410 c2 226 0 434 -3 463 l-7 53 -76 -3 -77 -3 -5 -310 -5 -310 -250
312 -250 313 -68 0 c-45 0 -69 -4 -72 -12z"/>
<path d="M4383 3130 c-70 -23 -162 -99 -192 -159 -66 -132 -49 -304 43 -415
86 -106 282 -150 442 -102 56 17 134 69 134 89 0 6 -17 32 -38 56 l-37 43 -54
-33 c-109 -68 -270 -46 -333 47 -14 21 -28 48 -30 59 -3 20 3 20 271 23 l273
2 -4 83 c-7 142 -71 242 -187 295 -77 36 -200 41 -288 12z m218 -124 c53 -22
99 -87 99 -141 l0 -25 -190 0 -190 0 0 25 c0 47 48 112 105 143 29 16 136 15
176 -2z"/>
<path d="M5947 3140 c-94 -24 -176 -90 -224 -182 -26 -49 -28 -62 -28 -168 0
-101 3 -120 23 -158 79 -148 232 -221 403 -193 95 16 154 42 207 94 181 175
122 501 -105 587 -65 25 -213 36 -276 20z m176 -131 c49 -13 105 -63 128 -114
24 -53 24 -147 0 -200 -10 -22 -34 -55 -54 -72 -136 -119 -346 -21 -347 163 0
159 127 264 273 223z"/>
<path d="M6728 3137 c-26 -8 -65 -26 -87 -40 -88 -58 -114 -199 -52 -279 30
-38 103 -68 222 -90 78 -15 119 -27 136 -42 32 -28 34 -73 4 -97 -52 -42 -198
-36 -300 11 -35 17 -65 29 -66 28 -1 -2 -14 -29 -28 -61 l-26 -57 22 -14 c12
-8 43 -21 68 -30 214 -71 433 -27 490 98 20 44 25 120 10 159 -23 59 -102 100
-246 127 -129 24 -165 44 -165 91 0 31 21 56 57 70 43 16 166 10 229 -10 32
-11 62 -17 65 -13 13 16 40 102 35 111 -23 37 -278 63 -368 38z"/>
<path d="M4940 3135 c0 -6 102 -148 189 -263 39 -53 52 -78 45 -87 -5 -8 -64
-86 -131 -174 -68 -88 -123 -162 -123 -165 0 -3 40 -6 88 -6 l89 0 89 124 c65
92 92 122 101 114 7 -5 48 -61 93 -124 l80 -114 90 0 c50 0 90 3 90 6 0 8
-239 322 -251 329 -20 13 -5 39 111 192 66 87 120 161 120 166 0 4 -38 7 -84
7 l-84 0 -79 -112 c-43 -61 -82 -113 -88 -115 -9 -2 -120 146 -153 204 -12 21
-19 23 -102 23 -50 0 -90 -2 -90 -5z"/>
</g>
</svg>
